<svg width="64" height="64" viewBox="0 0 64 64" fill="none" xmlns="http://www.w3.org/2000/svg">
  <defs>
    <linearGradient id="logo-grad" x1="0%" y1="0%" x2="100%" y2="100%">
      <stop offset="0%" stop-color="#f43f5e" /> <!-- Rose -->
      <stop offset="100%" stop-color="#eab308" /> <!-- Amber -->
    </linearGradient>
  </defs>
  <!-- Beautiful Hollow 4-pointed star outline -->
  <path fill-rule="evenodd" clip-rule="evenodd" d="M32 4C32 18 18 32 4 32C18 32 32 46 32 60C32 46 46 32 60 32C46 32 32 18 32 4ZM32 18C32 27 27 32 18 32C27 32 32 37 32 46C32 37 37 32 46 32C37 32 32 27 32 18Z" fill="url(#logo-grad)" />
  <!-- Small offset solid star representing the spark of creation -->
  <path d="M48 10C48 14 46 16 42 16C46 16 48 18 48 22C48 18 50 16 54 16C50 16 48 14 48 10Z" fill="url(#logo-grad)" opacity="0.85" />
</svg>